<?xml version="1.0" encoding="utf-8"?>
<!-- Generator: Adobe Illustrator 23.0.3, SVG Export Plug-In . SVG Version: 6.00 Build 0)  -->
<svg version="1.1" id="Logo_Color_ver" xmlns="http://www.w3.org/2000/svg" xmlns:xlink="http://www.w3.org/1999/xlink" x="0px"
	 y="0px" viewBox="0 0 1258.5 444.7" style="enable-background:new 0 0 1258.5 444.7;" xml:space="preserve">
<style type="text/css">
	.st0{fill:#95C11F;}
	.st1{fill:#3AAA35;}
</style>
<g>
	<path class="st0" d="M416.7,78.3c-20.2,0-36.7,19.4-36.7,43.4s16.4,43.4,36.7,43.4c20.2,0,36.7-19.4,36.7-43.4
		S436.9,78.3,416.7,78.3z"/>
	<path class="st0" d="M268.1,0c-24.8,0-44.9,23.8-44.9,53.1c0,29.3,20.1,53.1,44.9,53.1c24.8,0,44.9-23.8,44.9-53.1
		C313,23.8,292.9,0,268.1,0z"/>
	<path class="st0" d="M131.5,78.3c-20.2,0-36.7,19.4-36.7,43.4s16.4,43.4,36.7,43.4c20.2,0,36.7-19.4,36.7-43.4
		S151.8,78.3,131.5,78.3z"/>
	<path class="st1" d="M547.8,143.6c-2.5-16.6-23-30.4-38.9-22c-0.1,0-0.2,0.1-0.3,0.2c-0.1,0-51.9,27.7-51.9,27.7
		c-8.2,15.5-23,25.8-40,25.8c-22.8,0-41.9-18.8-46-43.6c-4.8-2.8-54.5-31-62.4-35.5c-10.1,12.4-24.3,20.3-40.2,20.3
		c-14.6,0-27.9-6.7-37.8-17.4c0,0-48.3,30-52.9,32.7c-4.1,24.8-23.1,43.6-46,43.6c-16.9,0-31.8-10.4-40-25.8
		c0,0-51.8-27.6-51.9-27.7c-0.1-0.1-0.2-0.1-0.3-0.2c-15.9-8.4-36.4,5.4-38.9,22c-1,6.4,0.2,13.2,3.5,19.1
		c4.1,7.4,56,42.2,69.3,51.1c14.3,9.5,19.6,27.4,19.6,43.6v66c0,21.4,17.3,38.7,38.7,38.7c21.4,0,38.7-17.3,38.7-38.7
		c0-11.4-1.2-66.5-0.5-82.3c0.7-16,8.2-30.3,21.7-36c6.8-1.9,14.1-1.8,20.8,0.8c12.6,4.9,20.7,16.8,20.7,30.4
		c0,49.1,0,162.3,0,169.6c0,21.4,17.3,38.7,38.7,38.7c21.4,0,38.7-17.3,38.7-38.7c0-1.9-0.5-115.7,0-170.9
		c0.1-9.8,4.5-19.1,12.1-25.3c10.6-8.6,27.1-9.5,38.6-2.4c11.6,7.1,16.9,20.8,17.5,33.9c0.7,15.8-0.5,70.8-0.5,82.3
		c0,21.4,17.3,38.7,38.7,38.7c21.4,0,38.7-17.3,38.7-38.7v-66c0-16.3,5.3-34.1,19.6-43.6c13.4-8.9,65.2-43.7,69.3-51.1
		C547.6,156.8,548.7,150,547.8,143.6z"/>
</g>
<g>
	<path d="M491.8,244.7h37.5c7.4,0,13.3,1,17.9,3c4.5,2,8.3,4.9,11.3,8.6c3,3.7,5.1,8.1,6.5,13.1c1.3,5,2,10.2,2,15.8
		c0,8.7-1,15.5-3,20.3c-2,4.8-4.7,8.8-8.3,12.1c-3.5,3.2-7.3,5.4-11.4,6.5c-5.5,1.5-10.5,2.2-15,2.2h-37.5V244.7z M517,263.2v44.6
		h6.2c5.3,0,9-0.6,11.2-1.8s4-3.2,5.2-6.1c1.3-2.9,1.9-7.6,1.9-14.2c0-8.6-1.4-14.6-4.2-17.8c-2.8-3.2-7.5-4.8-14-4.8H517z"/>
	<path d="M644.2,302.4h-45.4c0.4,3.6,1.4,6.3,3,8.1c2.2,2.6,5,3.8,8.6,3.8c2.2,0,4.3-0.6,6.3-1.7c1.2-0.7,2.5-1.9,4-3.7l22.3,2.1
		c-3.4,5.9-7.5,10.2-12.4,12.8c-4.8,2.6-11.7,3.9-20.8,3.9c-7.8,0-14-1.1-18.5-3.3c-4.5-2.2-8.2-5.7-11.2-10.5s-4.4-10.5-4.4-17
		c0-9.2,3-16.7,8.9-22.4c5.9-5.7,14.1-8.6,24.5-8.6c8.5,0,15.1,1.3,20,3.8s8.6,6.3,11.2,11.1c2.6,4.9,3.8,11.2,3.8,19V302.4z
		 M621.2,291.5c-0.4-4.4-1.6-7.5-3.5-9.4c-1.9-1.9-4.4-2.8-7.5-2.8c-3.6,0-6.5,1.4-8.6,4.3c-1.4,1.8-2.2,4.4-2.6,8H621.2z"/>
	<path d="M650.6,309.9l22.5-2.1c0.9,2.7,2.2,4.6,3.9,5.7c1.7,1.2,3.9,1.7,6.7,1.7c3,0,5.4-0.6,7.1-1.9c1.3-1,1.9-2.2,1.9-3.6
		c0-1.6-0.9-2.9-2.6-3.8c-1.2-0.6-4.5-1.4-9.7-2.3c-7.9-1.4-13.3-2.6-16.4-3.8c-3.1-1.2-5.6-3.1-7.7-5.9c-2.1-2.8-3.1-6-3.1-9.5
		c0-3.9,1.1-7.2,3.4-10.1c2.3-2.8,5.4-4.9,9.4-6.3c4-1.4,9.3-2.1,16-2.1c7,0,12.3,0.5,15.6,1.6c3.4,1.1,6.2,2.7,8.4,5
		c2.2,2.3,4.1,5.3,5.6,9.2l-21.5,2.1c-0.6-1.9-1.5-3.3-2.8-4.2c-1.8-1.2-3.9-1.8-6.5-1.8c-2.6,0-4.4,0.5-5.6,1.4s-1.8,2-1.8,3.3
		c0,1.4,0.7,2.5,2.2,3.3c1.5,0.7,4.7,1.4,9.7,2c7.5,0.9,13.1,2,16.8,3.6c3.7,1.5,6.5,3.7,8.4,6.5c1.9,2.8,2.9,5.9,2.9,9.3
		c0,3.4-1,6.7-3.1,10c-2.1,3.2-5.3,5.8-9.7,7.7c-4.4,1.9-10.5,2.9-18.1,2.9c-10.8,0-18.5-1.5-23.1-4.6
		C654.9,320,651.9,315.6,650.6,309.9z"/>
	<path d="M725.1,244.7h22.7v15.4h-22.7V244.7z M725.1,267.2h22.7v59.1h-22.7V267.2z"/>
	<path d="M803.4,267.2h21.2V323l0.1,2.6c0,3.7-0.8,7.2-2.4,10.6c-1.6,3.4-3.7,6.1-6.3,8.2c-2.6,2.1-5.9,3.6-10,4.5
		c-4,0.9-8.6,1.4-13.8,1.4c-11.9,0-20-1.8-24.5-5.3c-4.4-3.6-6.7-8.3-6.7-14.3c0-0.7,0-1.7,0.1-3l22,2.5c0.6,2,1.4,3.5,2.6,4.2
		c1.7,1.2,3.8,1.7,6.3,1.7c3.3,0,5.7-0.9,7.3-2.6c1.6-1.7,2.4-4.8,2.4-9.1v-9c-2.2,2.6-4.5,4.5-6.7,5.7c-3.5,1.9-7.3,2.8-11.3,2.8
		c-7.9,0-14.3-3.5-19.1-10.4c-3.5-4.9-5.2-11.4-5.2-19.4c0-9.2,2.2-16.2,6.7-21c4.5-4.8,10.3-7.2,17.5-7.2c4.6,0,8.4,0.8,11.4,2.3
		c3,1.6,5.8,4.1,8.4,7.7V267.2z M782,295.9c0,4.3,0.9,7.4,2.7,9.5c1.8,2.1,4.2,3.1,7.2,3.1c2.8,0,5.2-1.1,7.1-3.2s2.9-5.4,2.9-9.7
		c0-4.3-1-7.6-3-9.9s-4.5-3.4-7.3-3.4s-5.2,1-6.9,3.1C782.9,287.5,782,291,782,295.9z"/>
	<path d="M838.3,267.2h21.1v9.6c3.2-3.9,6.3-6.7,9.6-8.4s7.2-2.5,11.8-2.5c6.3,0,11.2,1.9,14.7,5.6s5.3,9.5,5.3,17.3v37.6H878v-32.5
		c0-3.7-0.7-6.3-2.1-7.9c-1.4-1.5-3.3-2.3-5.8-2.3c-2.7,0-5,1-6.7,3.1c-1.7,2.1-2.6,5.8-2.6,11.2v28.4h-22.7V267.2z"/>
	<path d="M907.6,244.7h28l16.4,27.5l16.5-27.5h27.9l-31.7,47.4v34.2h-25.3v-34.2L907.6,244.7z"/>
	<path d="M990.5,296.9c0-9,3-16.4,9.1-22.3c6.1-5.8,14.3-8.8,24.7-8.8c11.8,0,20.8,3.4,26.8,10.3c4.9,5.5,7.3,12.3,7.3,20.4
		c0,9.1-3,16.5-9,22.3s-14.4,8.7-25,8.7c-9.5,0-17.2-2.4-23-7.2C994.1,314.4,990.5,306.6,990.5,296.9z M1013.2,296.9
		c0,5.3,1.1,9.2,3.2,11.7c2.1,2.5,4.8,3.8,8,3.8c3.3,0,5.9-1.2,8-3.7c2.1-2.5,3.1-6.5,3.1-12c0-5.1-1.1-8.9-3.2-11.4
		s-4.7-3.8-7.8-3.8c-3.3,0-6,1.3-8.2,3.8C1014.3,287.8,1013.2,291.7,1013.2,296.9z"/>
	<path d="M1131.6,326.3h-21.2v-9.6c-3.2,3.9-6.3,6.7-9.5,8.4s-7.2,2.5-11.8,2.5c-6.2,0-11.1-1.9-14.7-5.6s-5.3-9.5-5.3-17.2v-37.6
		h22.8v32.5c0,3.7,0.7,6.3,2.1,7.9c1.4,1.6,3.3,2.3,5.8,2.3c2.7,0,4.9-1,6.7-3.1c1.7-2.1,2.6-5.8,2.6-11.2v-28.4h22.7V326.3z"/>
	<path d="M1172.7,244.7v22.5h12.5v16.6h-12.5v20.9c0,2.5,0.2,4.2,0.7,5c0.7,1.3,2,1.9,3.9,1.9c1.7,0,4-0.5,7-1.4l1.7,15.6
		c-5.6,1.2-10.8,1.8-15.7,1.8c-5.6,0-9.8-0.7-12.5-2.2s-4.6-3.6-5.9-6.6c-1.3-2.9-1.9-7.7-1.9-14.3v-20.8h-8.3v-16.6h8.3v-10.9
		L1172.7,244.7z"/>
	<path d="M1196,244.7h22.7v30.1c3.1-3.2,6.1-5.5,9.2-6.8c3-1.4,6.6-2.1,10.8-2.1c6.2,0,11,1.9,14.6,5.6c3.5,3.7,5.3,9.5,5.3,17.3
		v37.6h-22.8v-32.5c0-3.7-0.7-6.3-2.1-7.9c-1.4-1.5-3.3-2.3-5.8-2.3c-2.7,0-5,1-6.7,3.1c-1.7,2.1-2.6,5.8-2.6,11.2v28.4H1196V244.7z
		"/>
	<path d="M509.1,414.3L497,377.2h5.2l5.8,18.3c1.6,5,3,9.5,4,13.9h0.1c1-4.3,2.6-9,4.2-13.8l6.3-18.3h5.1l-13.3,37.1H509.1z"/>
	<path d="M575.5,377.2v37.1h-4.8v-37.1H575.5z"/>
	<path d="M622.2,408.5c2.1,1.3,5.3,2.4,8.6,2.4c4.9,0,7.8-2.6,7.8-6.3c0-3.5-2-5.4-7-7.4c-6-2.1-9.8-5.3-9.8-10.5
		c0-5.8,4.8-10.1,12-10.1c3.8,0,6.5,0.9,8.2,1.8l-1.3,3.9c-1.2-0.7-3.7-1.8-7-1.8c-5.1,0-7,3-7,5.6c0,3.5,2.3,5.2,7.4,7.1
		c6.3,2.4,9.5,5.4,9.5,10.9c0,5.7-4.2,10.7-13,10.7c-3.6,0-7.5-1-9.5-2.4L622.2,408.5z"/>
	<path d="M693.7,377.2v37.1h-4.8v-37.1H693.7z"/>
	<path d="M748.1,381.3h-11.3v-4.1h27.4v4.1h-11.3v33h-4.8V381.3z"/>
	<path d="M807.4,377.2h4.8v17.9h0.2c1-1.4,2-2.7,2.9-4l11.3-13.9h5.9L819.1,393l14.5,21.3h-5.7l-12.2-18.2l-3.5,4.1v14.1h-4.8V377.2
		z"/>
	<path d="M906.9,395.4c0,12.8-7.8,19.5-17.2,19.5c-9.8,0-16.7-7.6-16.7-18.8c0-11.8,7.3-19.5,17.2-19.5
		C900.4,376.6,906.9,384.4,906.9,395.4z M878.2,396c0,7.9,4.3,15,11.8,15c7.6,0,11.9-7,11.9-15.4c0-7.4-3.8-15.1-11.8-15.1
		C882.1,380.5,878.2,387.9,878.2,396z"/>
	<path d="M952.2,377.2h4.8v33h15.8v4h-20.6V377.2z"/>
	<path d="M1017.1,377.7c2.9-0.4,6.4-0.8,10.2-0.8c6.9,0,11.8,1.6,15,4.6c3.3,3,5.2,7.3,5.2,13.3c0,6-1.9,11-5.3,14.4
		c-3.5,3.5-9.2,5.3-16.4,5.3c-3.4,0-6.3-0.2-8.7-0.4V377.7z M1021.9,410.5c1.2,0.2,3,0.3,4.8,0.3c10.2,0,15.8-5.7,15.8-15.7
		c0.1-8.7-4.9-14.3-15-14.3c-2.5,0-4.3,0.2-5.6,0.5V410.5z"/>
	<path d="M1097.5,377.2v37.1h-4.8v-37.1H1097.5z"/>
	<path d="M1144.9,414.3v-37.1h5.2L1162,396c2.8,4.3,4.9,8.2,6.7,12l0.1-0.1c-0.4-4.9-0.5-9.5-0.5-15.2v-15.5h4.5v37.1h-4.8
		l-11.8-18.8c-2.6-4.1-5.1-8.4-6.9-12.4l-0.2,0.1c0.3,4.7,0.4,9.1,0.4,15.3v15.8H1144.9z"/>
	<path d="M1248.3,412.7c-2.1,0.8-6.4,2-11.4,2c-5.6,0-10.2-1.4-13.9-4.9c-3.2-3.1-5.2-8-5.2-13.8c0.1-11.1,7.6-19.1,20.1-19.1
		c4.3,0,7.6,0.9,9.2,1.7l-1.2,3.9c-2-0.9-4.5-1.6-8.2-1.6c-9,0-14.9,5.6-14.9,14.9c0,9.4,5.7,15,14.3,15c3.1,0,5.3-0.4,6.4-1v-11.1
		h-7.5v-3.8h12.2V412.7z"/>
</g>
</svg>
